<svg xmlns="http://www.w3.org/2000/svg" width="144" height="144" style="shape-rendering:geometricPrecision;text-rendering:geometricPrecision;image-rendering:optimizeQuality;fill-rule:evenodd;clip-rule:evenodd"><path style="opacity:1" fill="#a246fc" d="M60.5-.5h18a216.338 216.338 0 0 1-26 6v4c-8.9 2.781-16.9 7.115-24 13 .703-2.216 2.036-4.049 4-5.5a411.35 411.35 0 0 0 18-14.5 92.141 92.141 0 0 1 10-3z"/><path style="opacity:1" fill="#6146fe" d="M78.5-.5h4c10.451 2.041 20.118 6.041 29 12a146.766 146.766 0 0 0-16-4.5c-5.657-.5-11.324-.666-17-.5-8.872-.499-17.538.501-26 3v-4a216.338 216.338 0 0 0 26-6z"/><path style="opacity:1" fill="#2c2f33" d="M78.5 6.5a283.76 283.76 0 0 1 19 5 42605.4 42605.4 0 0 0 14 8c2.333 3 5 5.667 8 8a98.148 98.148 0 0 1 13 20c.63 3.548 1.63 6.881 3 10a80.318 80.318 0 0 1 0 24 58.636 58.636 0 0 1-6 19 75.896 75.896 0 0 1-12 17c-7.574 7.625-16.574 12.958-27 16a73.09 73.09 0 0 1-22 3 185.476 185.476 0 0 0-11-1 237.702 237.702 0 0 1-16-6 85.99 85.99 0 0 1-17-13 81.868 81.868 0 0 1-10-14h17v-3c-3.212.394-5.546-.772-7-3.5a81.06 81.06 0 0 1 8-15c7.66-.5 15.326-.666 23-.5a55.346 55.346 0 0 1 .5 16c-2.126 1.877-4.626 2.877-7.5 3v3h32v-3c-6.481-.562-9.481-4.228-9-11a32.386 32.386 0 0 1 3-7 144.877 144.877 0 0 1 24-1c.766 5.32.932 10.653.5 16-1.885 1.52-4.051 2.52-6.5 3-.886.825-1.219 1.825-1 3h32c-.577-3.145-2.577-4.645-6-4.5a9.457 9.457 0 0 1-1.5-2.5 2275.154 2275.154 0 0 1-11.5-66c-2.092.061-3.592 1.061-4.5 3a1718.38 1718.38 0 0 1-30 47l-8-48c-.826-1.905-1.993-2.239-3.5-1a4010.503 4010.503 0 0 0-40.5 64c-1.451 1.964-3.284 3.297-5.5 4a72.26 72.26 0 0 1-5-16 82.702 82.702 0 0 1-1-14 50.947 50.947 0 0 1 3-15 54.276 54.276 0 0 1 4-11 86.686 86.686 0 0 1 15-20c7.1-5.885 15.1-10.219 24-13 8.462-2.499 17.128-3.499 26-3z"/><path style="opacity:1" fill="#466efd" d="M78.5 6.5c5.676-.166 11.343 0 17 .5a146.766 146.766 0 0 1 16 4.5 36.886 36.886 0 0 1 11 9 125.366 125.366 0 0 1-13-6.5 133.837 133.837 0 0 1-12-2.5 283.76 283.76 0 0 0-19-5z"/><path style="opacity:1" fill="#4695fe" d="M97.5 11.5a133.837 133.837 0 0 0 12 2.5 125.366 125.366 0 0 0 13 6.5 25.136 25.136 0 0 1 4.5 4 31.523 31.523 0 0 1 5.5 9c-4.885-5.374-10.552-9.874-17-13.5a8.435 8.435 0 0 0-4-.5 42605.4 42605.4 0 0 1-14-8z"/><path style="opacity:1" fill="#dc45fc" d="M50.5 2.5a411.35 411.35 0 0 1-18 14.5c-1.964 1.451-3.297 3.284-4 5.5a86.686 86.686 0 0 0-15 20c-1.108-1.323-1.108-2.823 0-4.5A109.544 109.544 0 0 0 22 22.5c2.669-3.5 5.502-6.833 8.5-10 5.79-4.895 12.457-8.229 20-10z"/><path style="opacity:1" fill="#46c7fd" d="M111.5 19.5a8.435 8.435 0 0 1 4 .5c6.448 3.626 12.115 8.126 17 13.5 5.269 7.455 8.602 15.788 10 25-3.753-5.477-6.753-11.477-9-18-4.356-5.383-9.022-9.716-14-13-3-2.333-5.667-5-8-8z"/><path style="opacity:1" fill="#fcfcfc" d="M14.5 102.5h-4v-3c.992.172 1.658-.162 2-1 2.216-.703 4.049-2.036 5.5-4a4010.503 4010.503 0 0 1 40.5-64c1.507-1.239 2.674-.905 3.5 1l8 48a1718.38 1718.38 0 0 0 30-47c.908-1.939 2.408-2.939 4.5-3a2275.154 2275.154 0 0 0 11.5 66c.374.916.874 1.75 1.5 2.5 3.423-.145 5.423 1.355 6 4.5h-32c-.219-1.175.114-2.175 1-3 2.449-.48 4.615-1.48 6.5-3a71.504 71.504 0 0 0-.5-16 144.877 144.877 0 0 0-24 1 32.386 32.386 0 0 0-3 7c-.481 6.772 2.519 10.438 9 11v3h-32v-3c2.874-.123 5.374-1.123 7.5-3a55.346 55.346 0 0 0-.5-16c-7.674-.166-15.34 0-23 .5a81.06 81.06 0 0 0-8 15c1.454 2.728 3.788 3.894 7 3.5v3h-17z"/><path style="opacity:1" fill="#fd46e3" d="M30.5 12.5a123.178 123.178 0 0 0-8.5 10A109.544 109.544 0 0 1 13.5 38c-1.108 1.677-1.108 3.177 0 4.5a54.276 54.276 0 0 0-4 11c-.639-.597-.972-1.43-1-2.5 2.078-7.47 4.244-14.97 6.5-22.5a154.854 154.854 0 0 0 9.5-12 18.466 18.466 0 0 1 6-4z"/><path style="opacity:1" fill="#fe45b5" d="M24.5 16.5a154.854 154.854 0 0 1-9.5 12c-2.256 7.53-4.422 15.03-6.5 22.5.028 1.07.361 1.903 1 2.5a50.947 50.947 0 0 0-3 15c-.993-8.484-1.326-17.15-1-26 4.021-10.355 10.355-19.022 19-26z"/><path style="opacity:1" fill="#2d3034" d="M49.5 51.5c.617.11 1.117.444 1.5 1 1.215 7.673 2.382 15.34 3.5 23-6.342.166-12.675 0-19-.5a853.762 853.762 0 0 0 14-23.5zM92.5 50.5c2.212 7.76 3.879 15.76 5 24a45.626 45.626 0 0 1-19 0 216.967 216.967 0 0 0 14-24z"/><path style="opacity:1" fill="#fe4694" d="M5.5 42.5c-.326 8.85.007 17.516 1 26-.063 4.703.27 9.37 1 14-2.088-2.967-3.588-6.3-4.5-10-.5-6.992-.666-13.992-.5-21 .428-3.285 1.428-6.285 3-9z"/><path style="opacity:1" fill="#46f3f9" d="M142.5 58.5c-.172.992.162 1.658 1 2v10c-1.247-8.827-4.914-16.494-11-23a98.148 98.148 0 0 0-13-20c4.978 3.284 9.644 7.617 14 13 2.247 6.523 5.247 12.523 9 18z"/><path style="opacity:1" fill="#46fedb" d="M132.5 47.5c6.086 6.506 9.753 14.173 11 23v12a73.136 73.136 0 0 1-4 13c2.223-13.197.89-25.863-4-38-1.37-3.119-2.37-6.452-3-10z"/><path style="opacity:1" fill="#fe466a" d="M2.5 51.5c-.166 7.008 0 14.008.5 21 .912 3.7 2.412 7.033 4.5 10a72.26 72.26 0 0 0 5 16c-.342.838-1.008 1.172-2 1-4.118-7.6-7.284-15.6-9.5-24-.5-4.989-.666-9.989-.5-15-.285-3.33.382-6.33 2-9z"/><path style="opacity:1" fill="#46fd9d" d="M135.5 57.5c4.89 12.137 6.223 24.803 4 38-1.948 6.562-4.948 12.562-9 18 .155-3.65 1.321-7.316 3.5-11a45.98 45.98 0 0 1 2-10c.81-3.858.643-7.524-.5-11a80.318 80.318 0 0 0 0-24z"/><path style="opacity:1" fill="#fd5b47" d="M-.5 60.5h1c-.166 5.011 0 10.011.5 15 2.216 8.4 5.382 16.4 9.5 24v3h4a81.868 81.868 0 0 0 10 14c-8.861-5.346-15.695-12.679-20.5-22-.399.228-.565.562-.5 1a73.14 73.14 0 0 1-4-13v-22z"/><path style="opacity:1" fill="#fe9645" d="M24.5 116.5a85.99 85.99 0 0 0 17 13c-4.834-.58-9.5-1.58-14-3-3.285-2.33-6.619-4.663-10-7-6.19-7.04-10.857-15.04-14-24-.065-.438.101-.772.5-1 4.805 9.321 11.639 16.654 20.5 22z"/><path style="opacity:1" fill="#45fd67" d="M135.5 81.5c1.143 3.476 1.31 7.142.5 11a45.98 45.98 0 0 0-2 10c-2.179 3.684-3.345 7.35-3.5 11a39.312 39.312 0 0 1-10 11c-.543-.06-.876-.393-1-1a93.513 93.513 0 0 0 11-21.5c-.07-.765-.403-1.265-1-1.5a58.636 58.636 0 0 0 6-19z"/><path style="opacity:1" fill="#a0fe45" d="M117.5 117.5a4.934 4.934 0 0 1-.5 3c-2.833 1.5-5 3.667-6.5 6.5-6.683 3.815-12.683 8.315-18 13.5a92.057 92.057 0 0 1-10 3h-22l-6-2a97.128 97.128 0 0 0 26-2.5c3.588-1.622 6.921-3.455 10-5.5 10.426-3.042 19.426-8.375 27-16z"/><path style="opacity:1" fill="#fee244" d="M17.5 119.5c3.381 2.337 6.715 4.67 10 7 8.836 6.251 18.836 9.251 30 9 3.679.224 7.346.558 11 1-10.363 1.679-20.697 1.013-31-2-7.803-3.468-14.47-8.468-20-15z"/><path style="opacity:1" fill="#fcc046" d="M27.5 126.5c4.5 1.42 9.166 2.42 14 3a237.702 237.702 0 0 0 16 6c-11.164.251-21.164-2.749-30-9z"/><path style="opacity:1" fill="#5ffe45" d="M129.5 100.5c.597.235.93.735 1 1.5a93.513 93.513 0 0 1-11 21.5c.124.607.457.94 1 1-4.062 4.209-8.728 7.709-14 10.5a51.552 51.552 0 0 1-14 5.5c5.317-5.185 11.317-9.685 18-13.5 1.5-2.833 3.667-5 6.5-6.5a4.934 4.934 0 0 0 .5-3 75.896 75.896 0 0 0 12-17z"/><path style="opacity:1" fill="#e4fd45" d="M90.5 133.5c-3.079 2.045-6.412 3.878-10 5.5a97.128 97.128 0 0 1-26 2.5c-6.33-.992-11.998-3.325-17-7 10.303 3.013 20.637 3.679 31 2a73.09 73.09 0 0 0 22-3z"/></svg>